Coordinates
version=1
nRows=21
nColumns=33
inDegrees=yes

Units are S.I. units (second, meters, Newtons, ...)
Angles are in degrees.

endheader
time	ground_thorax_rot_x	ground_thorax_rot_y	ground_thorax_rot_z	ground_thorax_tx	ground_thorax_ty	ground_thorax_tz	clav_prot_r	clav_elev_r	scapula_abduction_r	scapula_elevation_r	scapula_upward_rot_r	scapula_winging_r	shoulder_elv_r	plane_of_elev_r	axial_rot_r	elbow_flexion_r	pro_sup_r	wrist_flex_r	wrist_dev_r	clav_prot_l	clav_elev_l	scapula_abduction_l	scapula_elevation_l	scapula_upward_rot_l	scapula_winging_l	shoulder_elv_l	plane_of_elev_l	axial_rot_l	elbow_flexion_l	pro_sup_l	wrist_flex_l	wrist_dev_l
      4.52000000	    -41.73796456	     -7.64202530	     11.39876372	    -44.90806054	    812.32167454	    -52.13811967	     23.39883752	    -45.00000000	     33.87827831	    -45.00000000	    -45.00000000	  -2250.82023521	  -2445.73054301	     22.50693414	    179.99999979	   1445.32909711	    203.10820952	     25.26896060	     15.44551500	      5.58831189	     28.14975697	    -30.08737093	    -45.00000000	    -45.00000000	  -2085.23261569	  -1344.05596900	     18.40886595	   -179.99999979	   3239.97345426	    178.80450740	      9.82720718	    -14.75117610
      4.53000000	    -41.79148325	     -7.47935476	     11.17942284	    -47.56452280	    814.05360805	    -52.19413984	     23.35619351	    -45.00000000	     33.81035224	    -45.00000000	    -45.00000000	  -2251.00247573	  -2445.68587140	     22.55802720	    179.99999979	   1445.26122257	    203.27457555	     25.35601768	     15.52709223	      5.46648488	     28.19803022	    -30.02259790	    -45.00000000	    -45.00000000	  -2085.10275719	  -1344.02903875	     18.42545826	   -179.99999979	   3239.97221530	    178.85830260	      9.85971039	    -14.81107704
      4.54000000	    -41.83307118	     -7.27906465	     10.96719066	    -50.14381436	    815.85525621	    -52.26330125	     23.31909093	    -45.00000000	     33.72777716	    -45.00000000	    -45.00000000	  -2251.21151961	  -2445.63535196	     22.61052438	    179.99999979	   1445.15231701	    203.43506973	     25.45507679	     15.59593263	      5.39568657	     28.24319615	    -29.99375619	    -45.00000000	    -45.00000000	  -2084.98309639	  -1344.00302368	     18.44501701	   -179.99999979	   3239.92728014	    178.88975256	      9.87568993	    -14.88247930
      4.55000000	    -41.86721969	     -7.11780609	     10.78039993	    -52.62340561	    817.71269718	    -52.33696179	     23.29492362	    -45.00000000	     33.67190955	    -45.00000000	    -45.00000000	  -2251.42165160	  -2445.58743377	     22.66521994	    179.99999979	   1445.05736936	    203.58048535	     25.55662024	     15.67085721	      5.31336437	     28.29274921	    -29.94741855	    -45.00000000	    -45.00000000	  -2084.85414137	  -1343.97561463	     18.46449101	   -179.99999979	   3239.88100139	    178.91016831	      9.90415224	    -14.95297202
      4.56000000	    -41.89302687	     -6.94496101	     10.58064797	    -54.97553621	    819.60990176	    -52.40354851	     23.26625253	    -45.00000000	     33.61678097	    -45.00000000	    -45.00000000	  -2251.61506465	  -2445.53740074	     22.71353203	    179.99999979	   1444.95229285	    203.69953580	     25.66260823	     15.74890712	      5.25307090	     28.33265384	    -29.91821326	    -45.00000000	    -45.00000000	  -2084.72922450	  -1343.94938693	     18.47648874	   -179.99999979	   3239.81114306	    178.91690996	      9.92201408	    -15.04034716
      4.57000000	    -41.94519733	     -6.84189191	     10.38327843	    -57.19729920	    821.53731754	    -52.46115750	     23.24170527	    -45.00000000	     33.59618590	    -45.00000000	    -45.00000000	  -2251.78499312	  -2445.48155163	     22.75449276	    179.99999979	   1444.89667787	    203.78529806	     25.75353152	     15.82939283	      5.20234658	     28.37465389	    -29.88429286	    -45.00000000	    -45.00000000	  -2084.61529101	  -1343.91286973	     18.46567512	   -179.99999979	   3239.76820754	    178.91784983	      9.94832016	    -15.11888667
      4.58000000	    -41.96958527	     -6.69466509	     10.18000794	    -59.30657233	    823.49726241	    -52.51192799	     23.19258596	    -45.00000000	     33.56341981	    -45.00000000	    -45.00000000	  -2251.92214946	  -2445.43653073	     22.79267945	    179.99999979	   1444.84226806	    203.82499065	     25.84547403	     15.92434290	      5.14780211	     28.39559589	    -29.85838108	    -45.00000000	    -45.00000000	  -2084.49308253	  -1343.88626879	     18.47746181	   -179.99999979	   3239.70698226	    178.91351889	      9.97624276	    -15.20912058
      4.59000000	    -42.00816689	     -6.56163819	      9.95944943	    -61.31238604	    825.48454205	    -52.55782940	     23.15169247	    -45.00000000	     33.52306028	    -45.00000000	    -45.00000000	  -2252.08809461	  -2445.38770991	     22.87154533	    179.99999979	   1444.74923788	    203.81560166	     25.94199592	     16.03058875	      5.07997141	     28.45633464	    -29.81911975	    -45.00000000	    -45.00000000	  -2084.38485204	  -1343.81657860	     18.50426622	   -179.99999979	   3239.67139511	    178.89941566	     10.00174333	    -15.29554259
      4.60000000	    -42.03887681	     -6.37352031	      9.71635805	    -63.22339953	    827.49462672	    -52.60051671	     23.08039825	    -45.00000000	     33.43036402	    -45.00000000	    -45.00000000	  -2252.24568412	  -2445.32599602	     22.92302285	    179.99999979	   1444.62104115	    203.75222301	     26.04033968	     16.14029428	      5.03621331	     28.48130320	    -29.82499105	    -45.00000000	    -45.00000000	  -2084.30007327	  -1343.75926318	     18.53993264	   -179.99999979	   3239.62126764	    178.86112456	     10.00343338	    -15.39155602
      4.61000000	    -42.06558862	     -6.21353551	      9.47638731	    -65.04893993	    829.52532796	    -52.64118493	     23.02429947	    -45.00000000	     33.38000968	    -45.00000000	    -45.00000000	  -2252.41107225	  -2445.27611278	     23.01036088	    179.99999979	   1444.49796969	    203.63337831	     26.12927414	     16.25895770	      4.97383565	     28.52982764	    -29.79836686	    -45.00000000	    -45.00000000	  -2084.18546449	  -1343.67647838	     18.59674832	   -179.99999979	   3239.55660633	    178.80399043	     10.03424307	    -15.48655400
      4.62000000	    -39.23477437	     -7.28812071	     10.46958863	    -67.18001885	    819.20894457	    -39.57466416	     23.41609962	    -45.00000000	     34.55998285	    -45.00000000	    -45.00000000	  -2253.85902571	  -2445.03629525	     23.61541818	    179.99999979	   1444.00267709	    204.99153945	     15.71189672	     13.06913150	      3.68279242	     28.48796182	    -29.06179816	    -45.00000000	    -45.00000000	  -2084.23792664	  -1343.69714201	     18.70326725	   -179.99999979	   3239.86643960	    178.77798217	     10.85545429	    -15.50093198
      4.63000000	    -39.30181854	     -6.90350901	     10.19038548	    -68.65736742	    821.38970480	    -39.52024060	     23.27384269	    -45.00000000	     34.28361743	    -45.00000000	    -45.00000000	  -2253.85780564	  -2444.94740129	     23.68118185	    179.99999979	   1443.97656126	    203.28780999	     15.86151392	     12.80445084	      3.53369002	     28.42911782	    -29.17338922	    -45.00000000	    -45.00000000	  -2084.27834330	  -1343.49193546	     18.69316843	   -179.99999979	   3239.79707082	    179.29703954	     10.60746005	    -15.75165048
      4.64000000	    -39.31637249	     -6.98596187	     10.18393192	    -70.10421434	    823.57118281	    -39.48880358	     23.26233530	    -45.00000000	     34.38800035	    -45.00000000	    -45.00000000	  -2254.15443409	  -2445.01452344	     23.82142714	    179.99999979	   1443.94948308	    201.47690890	     15.83368520	     12.92905043	      3.48252759	     28.61766371	    -29.10110996	    -45.00000000	    -45.00000000	  -2084.08567907	  -1343.45618205	     18.67590352	   -179.99999979	   3239.67471696	    179.68915230	     10.66832037	    -15.89623076
      4.65000000	    -39.37043132	     -6.74804283	      9.91116314	    -71.51160735	    825.75205735	    -39.47101430	     23.16529657	    -45.00000000	     34.30725173	    -45.00000000	    -45.00000000	  -2254.24551375	  -2445.00982092	     23.90084226	    179.99999979	   1443.83023502	    199.74562585	     15.87050516	     12.99095930	      3.45370034	     28.56247188	    -29.17766431	    -45.00000000	    -45.00000000	  -2083.97123091	  -1343.36016168	     18.72950243	   -179.99999979	   3239.57925844	    179.91456454	     10.58285737	    -16.05766067
      4.66000000	    -39.35488763	     -6.74419045	      9.87952636	    -72.87140553	    827.93438190	    -39.45867529	     23.10606523	    -45.00000000	     34.35296332	    -45.00000000	    -45.00000000	  -2254.45088425	  -2444.98691593	     23.94810780	    179.99999979	   1443.80800195	    198.05220391	     15.82436902	     13.11115364	      3.40296585	     28.66614861	    -29.17646960	    -45.00000000	    -45.00000000	  -2083.84807255	  -1343.31500681	     18.71578771	   -179.99999979	   3239.48448229	    180.03967205	     10.57316248	    -16.17751684
      4.67000000	    -39.37037710	     -6.67583136	      9.75245100	    -74.17185437	    830.11558289	    -39.44605194	     23.05307596	    -45.00000000	     34.35980766	    -45.00000000	    -45.00000000	  -2254.58037573	  -2444.96818907	     24.00222813	    179.99999979	   1443.77527164	    196.44701527	     15.79338984	     13.23743075	      3.35338462	     28.70799883	    -29.18851092	    -45.00000000	    -45.00000000	  -2083.72761461	  -1343.24772446	     18.72590652	   -179.99999979	   3239.38460799	    180.07955738	     10.54262721	    -16.29915361
      4.68000000	    -39.39503014	     -6.63996539	      9.63318231	    -75.39813350	    832.28753678	    -39.42842387	     23.00266435	    -45.00000000	     34.35376892	    -45.00000000	    -45.00000000	  -2254.72875203	  -2444.96829948	     24.10309321	    179.99999979	   1443.74285426	    194.90941142	     15.76494639	     13.38372369	      3.29122235	     28.77092206	    -29.17054171	    -45.00000000	    -45.00000000	  -2083.57051814	  -1343.16902209	     18.75600017	   -179.99999979	   3239.29108793	    180.06296815	     10.54024688	    -16.40365772
      4.69000000	    -39.40006167	     -6.51417669	      9.47131382	    -76.55981134	    834.44732439	    -39.41390029	     22.93876632	    -45.00000000	     34.38965643	    -45.00000000	    -45.00000000	  -2254.87425539	  -2444.92495124	     24.14780583	    179.99999979	   1443.67597447	    193.45561160	     15.73264268	     13.49579397	      3.26234649	     28.80389066	    -29.21935013	    -45.00000000	    -45.00000000	  -2083.48428533	  -1343.08203973	     18.78083943	   -179.99999979	   3239.15403325	    179.98167884	     10.47776740	    -16.51747863
      4.70000000	    -39.37541736	     -6.46709854	      9.40693283	    -77.65208620	    836.58791482	    -39.40256697	     22.86581698	    -45.00000000	     34.38082568	    -45.00000000	    -45.00000000	  -2255.02867673	  -2444.87029670	     24.19007617	    179.99999979	   1443.62913171	    192.09446501	     15.70957679	     13.60251276	      3.17191070	     28.87468647	    -29.25678381	    -45.00000000	    -45.00000000	  -2083.37224605	  -1343.02672221	     18.82100272	   -179.99999979	   3239.13742181	    179.88860262	     10.45062753	    -16.59704078
      4.71000000	    -39.39334234	     -6.41316187	      9.28241910	    -78.67696542	    838.70666094	    -39.39676875	     22.82485634	    -45.00000000	     34.42004140	    -45.00000000	    -45.00000000	  -2255.15933955	  -2444.83808257	     24.25572167	    179.99999979	   1443.59632018	    190.78094990	     15.66104508	     13.73985671	      3.14054825	     28.92164554	    -29.27031653	    -45.00000000	    -45.00000000	  -2083.24350478	  -1342.93538786	     18.83234326	   -179.99999979	   3238.97797741	    179.75623151	     10.40730408	    -16.70378407
      4.72000000	    -39.43178443	     -6.38097359	      9.10808146	    -79.63718595	    840.80425479	    -39.39593224	     22.81020964	    -45.00000000	     34.42313786	    -45.00000000	    -45.00000000	  -2255.31231451	  -2444.87990556	     24.42285478	    179.99999979	   1443.53106783	    189.49445932	     15.62391065	     13.95108538	      3.08551187	     28.97259474	    -29.20208944	    -45.00000000	    -45.00000000	  -2083.05153014	  -1342.77622824	     18.95134492	   -179.99999979	   3238.90041921	    179.61920401	     10.43504382	    -16.77468728
